<?xml version="1.0" encoding="UTF-8" standalone="no"?>
<!-- Created with Inkscape (http://www.inkscape.org/) -->

<svg
   width="512mm"
   height="512mm"
   viewBox="0 0 512 512"
   version="1.1"
   id="svg1"
   xml:space="preserve"
   inkscape:version="1.4.2 (f4327f4, 2025-05-13)"
   sodipodi:docname="Servease-Icono.svg"
   xmlns:inkscape="http://www.inkscape.org/namespaces/inkscape"
   xmlns:sodipodi="http://sodipodi.sourceforge.net/DTD/sodipodi-0.dtd"
   xmlns="http://www.w3.org/2000/svg"
   xmlns:svg="http://www.w3.org/2000/svg"><sodipodi:namedview
     id="namedview1"
     pagecolor="#505050"
     bordercolor="#eeeeee"
     borderopacity="1"
     inkscape:showpageshadow="0"
     inkscape:pageopacity="0"
     inkscape:pagecheckerboard="0"
     inkscape:deskcolor="#505050"
     inkscape:document-units="mm"
     inkscape:zoom="0.34431468"
     inkscape:cx="939.54751"
     inkscape:cy="1041.1987"
     inkscape:window-width="1920"
     inkscape:window-height="991"
     inkscape:window-x="-9"
     inkscape:window-y="-9"
     inkscape:window-maximized="1"
     inkscape:current-layer="layer1"
     showguides="false" /><defs
     id="defs1" /><g
     inkscape:label="Layer 1"
     inkscape:groupmode="layer"
     id="layer1"><g
       id="g2"
       transform="matrix(5.775215,0,0,5.775215,-97.104963,-358.66589)"><path
         style="fill:#3a5b87;fill-opacity:1;stroke:none;stroke-width:0.264583;stroke-linejoin:round;stroke-dasharray:none;stroke-opacity:1"
         d="M 72.131753,97.500121 C 70.802167,92.389967 67.664662,89.12882 62.351176,88.09311 l -0.441484,4.380883 c 2.891363,0.687939 5.019691,2.574932 6.010979,6.248702 z"
         id="path9"
         sodipodi:nodetypes="ccccc" /><path
         style="fill:#1b244c;fill-opacity:1;stroke:none;stroke-width:0.264583;stroke-linejoin:round;stroke-dasharray:none;stroke-opacity:1"
         d="m 59.634349,88.127069 c -4.40099,1.255267 -8.316788,3.205539 -9.407014,9.203251 -0.344805,2.94329 0.279036,5.78624 4.177121,9.27117 2.323004,1.35517 5.103605,2.10005 7.418514,2.19205 l -0.100484,-4.53857 c -3.380938,-0.13918 -5.735651,-1.27386 -6.67278,-3.76634 -0.757392,-2.327038 -0.190399,-3.826336 0.475446,-5.263851 1.265736,-1.700258 2.868767,-2.321176 4.584644,-2.580984 z"
         id="path11"
         sodipodi:nodetypes="ccccccccc" /><path
         style="fill:#203c6e;fill-opacity:1;stroke:none;stroke-width:0.264583;stroke-linejoin:round;stroke-dasharray:none;stroke-opacity:1"
         d="m 61.711755,104.29049 0.105588,4.49998 c 2.028828,0.17984 3.920555,1.00752 5.11848,3.04091 1.057696,1.95711 0.832012,3.76932 0.169802,5.53554 -1.028578,1.60414 -2.700038,2.39396 -4.686525,2.78475 l 0.407522,4.48276 c 4.676866,-0.88958 7.542679,-3.25484 8.761767,-6.96187 0.762712,-2.5199 0.886665,-5.14626 -0.645245,-8.0486 -1.194323,-1.77546 -2.596682,-3.32688 -4.618606,-4.21108 -0.626986,-0.46154 -2.189471,-0.76084 -4.609326,-1.15835 z"
         id="path12"
         sodipodi:nodetypes="ccccccccccc" /><path
         style="fill:#2fbccd;fill-opacity:1;stroke:none;stroke-width:0.264583;stroke-linejoin:round;stroke-dasharray:none;stroke-opacity:1"
         d="m 60.449396,120.18563 -0.305642,4.58464 c -1.640018,-0.28313 -3.409192,-0.44486 -5.433655,-2.00365 -1.692439,-1.02545 -2.928599,-2.82905 -3.633756,-4.48277 -0.440374,-1.00749 -0.678737,-2.01498 -0.849008,-3.02247 l 4.211082,-0.88297 c 1.500504,4.4012 3.607358,5.83129 6.010979,5.80722 z"
         id="path13"
         sodipodi:nodetypes="ccccccc" /><circle
         style="fill:#2fbccd;fill-opacity:1;stroke:none;stroke-width:0.269173;stroke-linejoin:round;stroke-dasharray:none;stroke-opacity:1"
         id="path14"
         cx="61.052795"
         cy="98.409164"
         r="3.3858516" /><circle
         style="fill:#203c6e;fill-opacity:1;stroke:none;stroke-width:0.269173;stroke-linejoin:round;stroke-dasharray:none;stroke-opacity:1"
         id="circle15"
         cx="61.196877"
         cy="114.66637"
         r="3.3858516" /></g></g></svg>
